<?xml version="1.0" encoding="UTF-8" standalone="no"?>
<svg
   xmlns:dc="http://purl.org/dc/elements/1.1/"
   xmlns:cc="http://creativecommons.org/ns#"
   xmlns:rdf="http://www.w3.org/1999/02/22-rdf-syntax-ns#"
   xmlns:svg="http://www.w3.org/2000/svg"
   xmlns="http://www.w3.org/2000/svg"
   xmlns:sodipodi="http://sodipodi.sourceforge.net/DTD/sodipodi-0.dtd"
   xmlns:inkscape="http://www.inkscape.org/namespaces/inkscape"
   version="1.2"
   viewBox="0 0 64.00005 64.00005"
   preserveAspectRatio="xMidYMid"
   clip-path="url(#presentation_clip_path)"
   xml:space="preserve"
   id="svg3407"
   inkscape:version="0.48.2 r9819"
   width="100%"
   height="100%"
   sodipodi:docname="logo.svg"
   style="fill-rule:evenodd;stroke-width:28.22200012;stroke-linejoin:round"><metadata
   id="metadata3827"><rdf:RDF><cc:Work
       rdf:about=""><dc:format>image/svg+xml</dc:format><dc:type
         rdf:resource="http://purl.org/dc/dcmitype/StillImage" /><dc:title /></cc:Work></rdf:RDF></metadata><sodipodi:namedview
   pagecolor="#ffffff"
   bordercolor="#666666"
   borderopacity="1"
   objecttolerance="10"
   gridtolerance="10"
   guidetolerance="10"
   inkscape:pageopacity="0"
   inkscape:pageshadow="2"
   inkscape:window-width="1920"
   inkscape:window-height="1032"
   id="namedview3825"
   showgrid="false"
   inkscape:zoom="8.0554664"
   inkscape:cx="3.1548064"
   inkscape:cy="29.652648"
   inkscape:window-x="1916"
   inkscape:window-y="-4"
   inkscape:window-maximized="1"
   inkscape:current-layer="flowRoot4338"
   fit-margin-top="0"
   fit-margin-left="0"
   fit-margin-right="0"
   fit-margin-bottom="0" />
 <defs
   id="defs3409"><clipPath
     id="presentation_clip_path"
     clipPathUnits="userSpaceOnUse">
   <rect
   x="0"
   y="0"
   width="15000"
   height="15000"
   id="rect3412" />
  </clipPath><pattern
     patternUnits="userSpaceOnUse"
     width="17.672548"
     height="18.986683"
     patternTransform="translate(43.2939,21.708817)"
     id="pattern5741"><g
       transform="matrix(0.00426667,0,0,0.00426667,-43.293903,-21.708818)"
       id="g3640"
       style="visibility:visible">
     <defs
   id="defs3642">
      <pattern
   id="pattern1"
   x="10147"
   y="5088"
   width="4143"
   height="4451"
   patternUnits="userSpaceOnUse">
       <g
   transform="translate(-10147,-5088)"
   id="g3645">
        <line
   fill="rgb(11,1,102)"
   stroke="rgb(11,1,102)"
   x1="10147"
   y1="5353"
   x2="14289"
   y2="5353"
   id="line3647" />
        <line
   fill="rgb(11,1,102)"
   stroke="rgb(11,1,102)"
   x1="10147"
   y1="5644"
   x2="14289"
   y2="5644"
   id="line3649" />
        <line
   fill="rgb(11,1,102)"
   stroke="rgb(11,1,102)"
   x1="10147"
   y1="5935"
   x2="14289"
   y2="5935"
   id="line3651" />
        <line
   fill="rgb(11,1,102)"
   stroke="rgb(11,1,102)"
   x1="10147"
   y1="6226"
   x2="14289"
   y2="6226"
   id="line3653" />
        <line
   fill="rgb(11,1,102)"
   stroke="rgb(11,1,102)"
   x1="10147"
   y1="6517"
   x2="14289"
   y2="6517"
   id="line3655" />
        <line
   fill="rgb(11,1,102)"
   stroke="rgb(11,1,102)"
   x1="10147"
   y1="6808"
   x2="14289"
   y2="6808"
   id="line3657" />
        <line
   fill="rgb(11,1,102)"
   stroke="rgb(11,1,102)"
   x1="10147"
   y1="7099"
   x2="14289"
   y2="7099"
   id="line3659" />
        <line
   fill="rgb(11,1,102)"
   stroke="rgb(11,1,102)"
   x1="10147"
   y1="7390"
   x2="14289"
   y2="7390"
   id="line3661" />
        <line
   fill="rgb(11,1,102)"
   stroke="rgb(11,1,102)"
   x1="10147"
   y1="7681"
   x2="14289"
   y2="7681"
   id="line3663" />
        <line
   fill="rgb(11,1,102)"
   stroke="rgb(11,1,102)"
   x1="10147"
   y1="7972"
   x2="14289"
   y2="7972"
   id="line3665" />
        <line
   fill="rgb(11,1,102)"
   stroke="rgb(11,1,102)"
   x1="10147"
   y1="8263"
   x2="14289"
   y2="8263"
   id="line3667" />
        <line
   fill="rgb(11,1,102)"
   stroke="rgb(11,1,102)"
   x1="10147"
   y1="8554"
   x2="14289"
   y2="8554"
   id="line3669" />
        <line
   fill="rgb(11,1,102)"
   stroke="rgb(11,1,102)"
   x1="10147"
   y1="8845"
   x2="14289"
   y2="8845"
   id="line3671" />
        <line
   fill="rgb(11,1,102)"
   stroke="rgb(11,1,102)"
   x1="10147"
   y1="9136"
   x2="14289"
   y2="9136"
   id="line3673" />
        <line
   fill="rgb(11,1,102)"
   stroke="rgb(11,1,102)"
   x1="10147"
   y1="9427"
   x2="14289"
   y2="9427"
   id="line3675" />
       </g>
      </pattern>
     </defs>
     <path
   style="fill:#00ff00;"
   d="m 12218,9538 -2071,0 0,-4450 4142,0 0,4450 -2071,0 z"
   id="path3677"
   inkscape:connector-curvature="0" />
    </g></pattern></defs>
 <defs
   id="defs3414" />
 <defs
   id="defs3471" />
 <rect
   style="fill:#ffffff;fill-opacity:1;fill-rule:nonzero;stroke:none"
   id="rect3142"
   width="64.055878"
   height="64.304161"
   x="0.1241393"
   y="-0.055831358" /><g
   id="id2"
   class="Master_Slide"
   clip-path="url(#presentation_clip_path)"
   transform="scale(0.00426667,0.00426667)">
  <g
   id="bg-id2"
   visibility="visible"
   class="Background"
   style="visibility:visible">
   <rect
   x="0"
   y="0"
   width="15000"
   height="15000"
   id="rect3492"
   style="fill:none;stroke:none" />
  </g>
  <g
   id="bo-id2"
   visibility="visible"
   class="BackgroundObjects"
   style="visibility:visible" />
 </g>
 <g
   style="visibility:visible"
   id="g3496"
   class="com.sun.star.drawing.CustomShape"
   transform="scale(0.00426667,0.00426667)">
   <g
   id="g3498">
    <path
   style="fill:#808080;stroke:none"
   inkscape:connector-curvature="0"
   id="path3500"
   d="m 2763,4750 -2071,0 0,-4142 4142,0 0,4142 -2071,0 z" />
    <rect
   style="fill:none;stroke:none"
   id="rect3502"
   height="4143"
   width="4143"
   y="608"
   x="692" />
    <path
   style="fill:#b3b3b3;stroke:none"
   inkscape:connector-curvature="0"
   id="path3504"
   d="m 2613,4600 -2071,0 0,-4142 4142,0 0,4142 -2071,0 z" />
    <rect
   style="fill:none;stroke:none"
   id="rect3506"
   height="4143"
   width="4143"
   y="458"
   x="542" />
    <rect
   style="fill:none;stroke:none"
   id="rect3508"
   height="4143"
   width="4143"
   y="458"
   x="542" />
   </g>
  </g><g
   style="visibility:visible"
   id="g3510"
   class="com.sun.star.drawing.CustomShape"
   transform="scale(0.00426667,0.00426667)">
   <g
   id="g3512">
    <path
   style="fill:#808080;stroke:none"
   inkscape:connector-curvature="0"
   id="path3514"
   d="m 7560,4750 -2187,0 0,-4142 4373,0 0,4142 -2186,0 z" />
    <rect
   style="fill:none;stroke:none"
   id="rect3516"
   height="4143"
   width="4374"
   y="608"
   x="5373" />
    <path
   style="fill:#b3b3b3;stroke:none"
   inkscape:connector-curvature="0"
   id="path3518"
   d="m 7560,4600 -2187,0 0,-4142 4373,0 0,4142 -2186,0 z" />
    <rect
   style="fill:none;stroke:none"
   id="rect3520"
   height="4143"
   width="4374"
   y="458"
   x="5373" />
    <rect
   style="fill:none;stroke:none"
   id="rect3522"
   height="4143"
   width="4374"
   y="458"
   x="5374" />
   </g>
  </g><g
   style="visibility:visible"
   id="g3524"
   class="com.sun.star.drawing.CustomShape"
   transform="scale(0.00426667,0.00426667)">
   <g
   id="g3526">
    <path
   style="fill:#808080;stroke:none"
   inkscape:connector-curvature="0"
   id="path3528"
   d="m 2763,9432 -2071,0 0,-4143 4142,0 0,4143 -2071,0 z" />
    <rect
   style="fill:none;stroke:none"
   id="rect3530"
   height="4144"
   width="4143"
   y="5289"
   x="692" />
    <path
   style="fill:#b3b3b3;stroke:none"
   inkscape:connector-curvature="0"
   id="path3532"
   d="m 2613,9432 -2071,0 0,-4143 4142,0 0,4143 -2071,0 z" />
    <rect
   style="fill:none;stroke:none"
   id="rect3534"
   height="4144"
   width="4143"
   y="5289"
   x="542" />
    <rect
   style="fill:none;stroke:none"
   id="rect3536"
   height="4144"
   width="4143"
   y="5290"
   x="542" />
   </g>
  </g><g
   style="visibility:visible"
   id="g3538"
   class="com.sun.star.drawing.CustomShape"
   transform="scale(0.00426667,0.00426667)">
   <g
   id="g3540">
    <path
   style="fill:#808080;stroke:none"
   inkscape:connector-curvature="0"
   id="path3542"
   d="m 2763,14115 -2071,0 0,-4142 4142,0 0,4142 -2071,0 z" />
    <rect
   style="fill:none;stroke:none"
   id="rect3544"
   height="4143"
   width="4143"
   y="9973"
   x="692" />
    <path
   style="fill:#b3b3b3;stroke:none"
   inkscape:connector-curvature="0"
   id="path3546"
   d="m 2613,14265 -2071,0 0,-4142 4142,0 0,4142 -2071,0 z" />
    <rect
   style="fill:none;stroke:none"
   id="rect3548"
   height="4143"
   width="4143"
   y="10123"
   x="542" />
    <rect
   style="fill:none;stroke:none"
   id="rect3550"
   height="4143"
   width="4143"
   y="10123"
   x="542" />
   </g>
  </g><g
   style="visibility:visible"
   id="g3552"
   class="com.sun.star.drawing.CustomShape"
   transform="scale(0.00426667,0.00426667)">
   <g
   id="g3554">
    <path
   style="fill:#808080;stroke:none"
   inkscape:connector-curvature="0"
   id="path3556"
   d="m 7445,14115 -2072,0 0,-4142 4143,0 0,4142 -2071,0 z" />
    <rect
   style="fill:none;stroke:none"
   id="rect3558"
   height="4143"
   width="4144"
   y="9973"
   x="5373" />
    <path
   style="fill:#b3b3b3;stroke:none"
   inkscape:connector-curvature="0"
   id="path3560"
   d="m 7445,14265 -2072,0 0,-4142 4143,0 0,4142 -2071,0 z" />
    <rect
   style="fill:none;stroke:none"
   id="rect3562"
   height="4143"
   width="4144"
   y="10123"
   x="5373" />
    <rect
   style="fill:none;stroke:none"
   id="rect3564"
   height="4143"
   width="4144"
   y="10123"
   x="5374" />
   </g>
  </g><path
   style="fill:#808080;stroke:none;visibility:visible"
   inkscape:connector-curvature="0"
   id="path3570"
   d="m 51.746174,60.224047 -8.836274,0 0,-17.672547 17.672547,0 0,17.672547 -8.836273,0 z" /><rect
   style="fill:none;stroke:none;visibility:visible"
   id="rect3572"
   height="17.676813"
   width="17.676813"
   y="42.551498"
   x="42.909901" /><path
   style="fill:#b3b3b3;stroke:none;visibility:visible"
   inkscape:connector-curvature="0"
   id="path3574"
   d="m 52.386174,60.864048 -8.836273,0 0,-17.672548 17.672547,0 0,17.672548 -8.836274,0 z" /><rect
   style="fill:none;stroke:none;visibility:visible"
   id="rect3576"
   height="17.676813"
   width="17.676813"
   y="43.191502"
   x="43.5499" /><rect
   style="fill:none;stroke:none;visibility:visible"
   id="rect3578"
   height="17.676813"
   width="17.676813"
   y="43.191502"
   x="43.5499" /><g
   style="visibility:visible"
   id="g3580"
   class="com.sun.star.drawing.CustomShape"
   transform="scale(0.00426667,0.00426667)">
   <g
   id="g3582">
    <path
   style="fill:#ff3333;stroke:none"
   inkscape:connector-curvature="0"
   id="path3584"
   d="M 7388,5213 9460,7285 7388,9357 5316,7285 7388,5213 l 0,0 z m -2072,0 0,0 z m 4144,4144 0,0 z" />
    <rect
   style="fill:none;stroke:none"
   id="rect3586"
   height="4145"
   width="4145"
   y="5213"
   x="5316" />
    <rect
   style="fill:none;stroke:none"
   id="rect3588"
   height="4144"
   width="4144"
   y="5214"
   x="5317" />
   </g>
  </g><path
   style="fill:#0b0134;stroke:none;visibility:visible"
   inkscape:connector-curvature="0"
   id="path3594"
   d="m 51.746133,20.266667 -8.836266,0 0,-17.672534 17.672533,0 0,17.672534 -8.836267,0 z" /><rect
   style="fill:none;stroke:none;visibility:visible"
   id="rect3596"
   height="17.6768"
   width="17.6768"
   y="2.5941658"
   x="42.90979" /><path
   d="m 52.386133,19.626667 -8.836266,0 0,-17.672534 17.672533,0 0,17.672534 -8.836267,0 z"
   id="path3614"
   inkscape:connector-curvature="0"
   style="font-size:917px;font-style:normal;font-weight:700;fill:#0b0166;stroke:none;visibility:visible;font-family:Bitstream Vera Sans embedded" /><rect
   x="43.549789"
   y="1.9541664"
   width="17.6768"
   height="17.6768"
   id="rect3616"
   style="font-size:917px;font-style:normal;font-weight:700;fill:none;stroke:none;visibility:visible;font-family:Bitstream Vera Sans embedded" /><rect
   x="43.549789"
   y="1.9541664"
   width="17.6768"
   height="17.6768"
   id="rect3632"
   style="font-size:917px;font-style:normal;font-weight:700;fill:none;stroke:none;visibility:visible;font-family:Bitstream Vera Sans embedded" /><path
   style="fill:#ffffff;stroke:none;visibility:visible;stroke-width:0.21999999;stroke-miterlimit:4;stroke-dasharray:none"
   inkscape:connector-curvature="0"
   id="path3638"
   d="m 52.130133,40.695467 -8.836266,0 0,-18.986667 17.672533,0 0,18.986667 -8.836267,0 z" /><path
   style="fill:none;stroke:none;visibility:visible"
   d="m 43.293953,21.708748 17.6768,0 0,18.990932 -17.6768,0 z"
   id="rect3679" /><path
   style="font-size:265px;font-style:normal;font-weight:700;fill:none;stroke:none;visibility:visible;font-family:Arial embedded"
   d="m 43.293953,21.708748 17.6768,0 0,18.990932 -17.6768,0 z"
   id="rect3817" />
<g
   transform="matrix(0.00478467,0,0,0.00619552,-6.8769571,-6.4081182)"
   style="font-size:1150px;font-style:normal;font-variant:normal;font-weight:normal;font-stretch:normal;text-align:start;line-height:125%;letter-spacing:0px;word-spacing:0px;writing-mode:lr-tb;text-anchor:start;fill:#ffffff;fill-opacity:1;stroke:none;font-family:Sans;-inkscape-font-specification:Sans"
   id="flowRoot4338"><path
     d="m 10706.118,4014.3351 0,-482.0868 90.967,0 0,68.5453 c 43.799,-52.9595 107.063,-79.4395 189.795,-79.44 35.937,5e-4 68.973,5.2208 99.109,15.6611 30.134,10.4411 52.689,24.135 67.663,41.0817 14.974,16.9476 25.456,37.0724 31.446,60.3743 3.743,15.1318 5.614,41.6118 5.615,79.44 l 0,296.4244 -101.074,0 0,-293.2468 c -10e-4,-33.2888 -3.931,-58.1799 -11.792,-74.6735 -7.862,-16.4928 -21.807,-29.6572 -41.834,-39.493 -20.028,-9.8351 -43.518,-14.7527 -70.471,-14.7531 -43.05,4e-4 -80.205,11.0463 -111.462,33.1378 -31.259,22.0922 -46.888,64.0062 -46.888,125.7421 l 0,263.2865 z"
     id="path3140"
     inkscape:connector-curvature="0" /><path
     d="m 11308.633,3773.2917 c 0,-89.275 30.696,-155.3993 92.09,-198.3728 51.285,-35.7097 113.801,-53.5648 187.548,-53.5653 81.983,5e-4 148.991,21.7141 201.026,65.1408 52.034,43.4276 78.051,103.4236 78.052,179.9882 0,62.039 -11.512,110.8377 -34.534,146.3965 -23.023,35.5588 -56.527,63.1737 -100.513,82.8445 -43.986,19.6708 -91.996,29.5062 -144.031,29.5062 -83.48,0 -150.956,-21.6379 -202.429,-64.9137 -51.473,-43.2758 -77.209,-105.6172 -77.209,-187.0244 z m 103.882,0 c 0,61.7364 16.658,107.9628 49.975,138.6794 33.317,30.7169 75.244,46.0753 125.781,46.0752 50.163,1e-4 91.903,-15.434 125.22,-46.3021 33.317,-30.868 49.975,-77.9267 49.976,-141.1761 0,-59.6175 -16.753,-104.7847 -50.257,-135.5019 -33.504,-30.7164 -75.15,-46.0747 -124.939,-46.0751 -50.537,4e-4 -92.464,15.2831 -125.781,45.8482 -33.317,30.5657 -49.975,76.7165 -49.975,138.4524 z"
     id="path3142"
     inkscape:connector-curvature="0" /><path
     d="m 11985.269,4014.3351 0,-482.0868 90.966,0 0,73.0847 c 23.21,-34.1966 44.641,-56.7424 64.295,-67.6375 19.653,-10.8941 41.271,-16.3414 64.856,-16.3419 34.065,5e-4 68.692,8.7767 103.882,26.3287 l -34.815,75.8084 c -24.707,-11.8021 -49.414,-17.7033 -74.121,-17.7037 -22.087,4e-4 -41.927,5.3719 -59.521,16.1149 -17.595,10.7437 -30.136,25.6481 -37.623,44.7133 -11.23,29.0527 -16.845,60.8286 -16.845,95.3279 l 0,252.392 z"
     id="path3144"
     inkscape:connector-curvature="0" /><path
     d="m 12378.896,4014.3351 0,-665.4796 308.838,0 c 62.891,6e-4 113.334,6.7341 151.331,20.2004 37.996,13.4676 67.756,34.1976 89.282,62.1901 21.525,27.9937 32.287,57.273 32.288,87.8379 0,28.4476 -9.547,55.2301 -28.638,80.3478 -19.092,25.1186 -47.917,45.3946 -86.475,60.8284 49.788,11.8028 88.065,31.9276 114.832,60.3743 26.765,28.4473 40.148,62.039 40.149,100.7752 0,31.1709 -8.143,60.1475 -24.426,86.93 -16.285,26.7827 -36.406,47.4371 -60.364,61.9632 -23.959,14.5262 -54.001,25.4964 -90.125,32.9108 -36.125,7.4144 -80.392,11.1215 -132.8,11.1215 z m 108.936,-385.8511 178.003,0 c 48.291,4e-4 82.918,-2.5719 103.882,-7.717 27.701,-6.6574 48.571,-17.7033 62.61,-33.1378 14.037,-15.4336 21.056,-34.8017 21.057,-58.1046 0,-22.0914 -6.552,-41.5352 -19.654,-58.3316 -13.102,-16.7953 -31.82,-28.2952 -56.152,-34.4996 -24.333,-6.2034 -66.073,-9.3053 -125.22,-9.3059 l -164.526,0 z m 0,307.3191 204.956,0 c 35.188,10e-5 59.895,-1.0591 74.121,-3.1776 25.081,-3.6315 46.045,-9.684 62.891,-18.1577 16.845,-8.4734 30.696,-20.8055 41.553,-36.9963 10.855,-16.1904 16.283,-34.8777 16.284,-56.0619 0,-24.8153 -7.862,-46.3775 -23.584,-64.6868 -15.723,-18.3088 -37.529,-31.1704 -65.418,-38.5851 -27.889,-7.4141 -68.038,-11.1213 -120.447,-11.1216 l -190.356,0 z"
     id="path3146"
     inkscape:connector-curvature="0" /><path
     d="m 13170.083,4014.3351 0,-665.4796 108.936,0 0,665.4796 z"
     id="path3148"
     inkscape:connector-curvature="0" /><path
     d="m 13679.946,4014.3351 0,-586.9476 -271.216,0 0,-78.532 652.491,0 0,78.532 -272.339,0 0,586.9476 z"
     id="path3150"
     inkscape:connector-curvature="0" /></g><path
   style="fill:none;fill-rule:evenodd;stroke:none;visibility:visible;fill-opacity:1;stroke-width:0.21999999;stroke-miterlimit:4;stroke-dasharray:none"
   inkscape:connector-curvature="0"
   id="path3574-6"
   d="m 52.510923,40.311824 -8.836273,0 0,-17.672547 17.672546,0 0,17.672547 -8.836273,0 z" /><path
   style="fill:none;visibility:visible;stroke-width:0.21999999;stroke-miterlimit:4;stroke-dasharray:none"
   d="m 52.130171,40.695497 -8.836274,0 0,-18.986681 17.672548,0 0,18.986681 -8.836274,0 z"
   id="path5834"
   inkscape:connector-curvature="0" />
       <path
   style="fill:#0b0166;stroke:#0b0166;stroke-width:0.21999998;stroke-miterlimit:4"
   d="m 43.572891,22.482626 17.672547,0"
   id="line5859" /><path
   style="fill:#0b0166;stroke:#0b0166;stroke-width:0.21999998;stroke-miterlimit:4"
   d="m 43.572891,23.724226 17.672547,0"
   id="line5861" /><path
   style="fill:#0b0166;stroke:#0b0166;stroke-width:0.21999998;stroke-miterlimit:4"
   d="m 43.572891,24.965828 17.672547,0"
   id="line5863" /><path
   style="fill:#0b0166;stroke:#0b0166;stroke-width:0.21999998;stroke-miterlimit:4"
   d="m 43.572891,26.207428 17.672547,0"
   id="line5865" /><path
   style="fill:#0b0166;stroke:#0b0166;stroke-width:0.21999998;stroke-miterlimit:4"
   d="m 43.572891,27.44903 17.672547,0"
   id="line5867" /><path
   style="fill:#0b0166;stroke:#0b0166;stroke-width:0.21999998;stroke-miterlimit:4"
   d="m 43.572891,28.69063 17.672547,0"
   id="line5869" /><path
   style="fill:#0b0166;stroke:#0b0166;stroke-width:0.21999998;stroke-miterlimit:4"
   d="m 43.572891,29.932232 17.672547,0"
   id="line5871" /><path
   style="fill:#0b0166;stroke:#0b0166;stroke-width:0.21999998;stroke-miterlimit:4"
   d="m 43.572891,31.173832 17.672547,0"
   id="line5873" /><path
   style="fill:#0b0166;stroke:#0b0166;stroke-width:0.21999998;stroke-miterlimit:4"
   d="m 43.572891,32.415432 17.672547,0"
   id="line5875" /><path
   style="fill:#0b0166;stroke:#0b0166;stroke-width:0.21999998;stroke-miterlimit:4"
   d="m 43.572891,33.657036 17.672547,0"
   id="line5877" /><path
   style="fill:#0b0166;stroke:#0b0166;stroke-width:0.21999998;stroke-miterlimit:4"
   d="m 43.572891,34.898636 17.672547,0"
   id="line5879" /><path
   style="fill:#0b0166;stroke:#0b0166;stroke-width:0.21999998;stroke-miterlimit:4"
   d="m 43.572891,36.140236 17.672547,0"
   id="line5881" /><path
   style="fill:#0b0166;stroke:#0b0166;stroke-width:0.21999998;stroke-miterlimit:4"
   d="m 43.572891,37.381836 17.672547,0"
   id="line5883" /><path
   style="fill:#0b0166;stroke:#0b0166;stroke-width:0.21999998;stroke-miterlimit:4"
   d="m 43.572891,38.62344 17.672547,0"
   id="line5885" /><path
   style="fill:#0b0166;stroke:#0b0166;stroke-width:0.21999998;stroke-miterlimit:4"
   d="m 43.572891,39.86504 17.672547,0"
   id="line5887" />
      </svg>